<?xml version="1.0" encoding="utf-8"?>
<!-- Generator: Adobe Illustrator 16.2.1, SVG Export Plug-In . SVG Version: 6.00 Build 0)  -->
<!DOCTYPE svg PUBLIC "-//W3C//DTD SVG 1.1//EN" "http://www.w3.org/Graphics/SVG/1.1/DTD/svg11.dtd">
<svg version="1.1" id="Layer_2" xmlns="http://www.w3.org/2000/svg" xmlns:xlink="http://www.w3.org/1999/xlink" x="0px" y="0px"
	 width="400px" height="400px" viewBox="0 0 400 400" enable-background="new 0 0 400 400" xml:space="preserve">
<g>
	<path fill="#FFFFFF" d="M247.881,14h-85.633c-20.792,0-37.707,16.913-37.707,37.702v290.06c0,20.791,16.915,37.706,37.707,37.706
		c0,0,85.396-0.014,85.595-0.014c20.8,0,37.718-16.915,37.718-37.704l0.014-290.046C285.574,30.913,268.667,14,247.881,14"/>
	<path fill="#DD0031" d="M226.76,82.086c2.57,1.568,3.938,2.783,6.588,4.48c6.939,4.416,15.54,12.225,14.452,39.153
		c1.967,5.88,2.832,17.431,4.676,21.106c3.618,7.24,6.028,11.906,7.085,18.699c0,0,1.057,10.628,2.412,11.381
		c7.234,1.65,5.132,2.334,6.18,3.615c1.126,1.432,5.321,1.399,5.312,5.256c1.454,1.936,2.521,3.925,3.358,6.049V51.702
		c0-16.001-12.961-28.95-28.941-28.95h-27.653c4.438,1.583,6.91,3.464,8.435,6.409c3.535,0.3,7.762,8.304,1.178,20.109
		c2.878,1.971,0.626,4.91-1.421,8.32c-0.668,1.038-1.351,3.001-3.25,2.87c-2.598,5.302-5.603,10.419-7.854,10.724
		c-0.681,0.824-1.171,3.126-0.19,4.183c3.39,1.506,7.479,3.558,9.507,5.52L226.76,82.086z"/>
	<path fill="#DD0031" d="M252.203,370.368c12.669-7.69,4.801-22.271,2.381-30.867c-0.133-0.478,0.243-1.117,0.459-1.52
		c0.634-1.17-0.725-3.92-0.725-3.92c-1.507-1.347-1.924-8.476-2.743-11.744c-1.36-5.429,2.415-14.768,2.415-17.938
		c0-3.167-2.415-7.555-6.785-13.123c-1.056-1.204-4.258-28.402-7.092-35.279c-3.92-9.498-5.125-7.989-9.794-19.302
		c-3.622-7.987-0.76-19.742-8.905-47.037c0.041,0.134,1.826-1.658,1.826-1.658s-6.49-23.664-8.6-30.152
		c-2.113-6.479-5.889-6.934-5.889-6.934s0.034-2.636,0.225-3.314c0.303-1.057,7.845-20.793,8.52-21.411
		c0.044-0.449,10.95-7.887,11.166-6.78c0.897,4.825,5.126,29.398,6.932,33.315c1.803,3.926,8.133,15.984,11.07,23.44
		c-11.318,2.742-19.719,12.941-19.719,25.1c0,14.271,11.563,25.842,25.837,25.842c10.887,0,20.248-6.747,24.05-16.29l-0.019,130.962
		c0,14.554-10.476,26.478-24.345,28.61H252.203z"/>
	<path fill="#003DA6" d="M191.361,331.489h-3.184v11.779h2.965c3.314,0,3.695-1.626,3.695-5.925
		C194.838,334.379,194.457,331.489,191.361,331.489 M194.401,319.399c0-3.038-0.647-4.734-3.091-4.734h-3.133v9.785h2.741
		C194.076,324.45,194.401,322.104,194.401,319.399 M218.877,313.846h-0.112l-0.061,1.004l-2.491,19.485h4.988l-2.277-19.485
		L218.877,313.846z M244.187,336.17c-4.61-4.142-1.517-5.865-1.744-7.518c-3.009-12.665-13.11-20.36-7.909-24.52
		c-1.276-4.217-3.858-9.463-3.759-9.415c-15.684-9.047-29.108-23.661-31.361-25.777c-2.719-3.002-7.398-6.021-8.298-8.439
		c-3.768-3.47-22.32-29.702-26.532-39.345l-7.545-1.062c-3.38-13.923-14.776-25.626-15.064-39.646
		c-0.124-5.298,2.407-16.584,3.315-18.851c0.9-2.25,5.278-6.019,5.278-6.019v-3.778c-16.372,0.487-11.642-1.189-14.48-7.536
		c-1.973-4.419-0.579-5.377,0.145-8.45c2.159-8.955,9.497-22.918,12.521-29.239c0.906-3.175,4.068-10.86,4.068-10.86
		c12.215-24.877,16.743-23.061,31.204-24.423l0.763-1.055c14.515-0.611,12.152-1.751,14.165-15.676
		c-2.113,0.9-2.712-4.372-2.712-4.372c-1.168-7.998,2.19-6.482,3.766-6.637c0.37-13.059,1.659-17.181,11.165-20.802h-48.925
		c-15.996,0-28.952,12.952-28.952,28.953v290.059c0,15.976,12.956,28.957,28.952,28.957h85.629
		C238.077,365.438,243.875,355.322,244.187,336.17 M174.462,350.651h-9.729l-7.016-25.249l-0.244-1.563h-0.086v26.812h-8.668
		v-43.354h9.785l6.9,23.817l0.31,1.728h0.097v-25.545h8.651V350.651z M192.359,350.651h-14.476v-43.354h14.154
		c7.265,0,10.787,2.763,10.787,10.204c0,4.552-0.638,8.565-5.472,10.191v0.112c4.885,0.865,6.55,4.505,6.55,9.979
		C203.903,345.059,201.253,350.651,192.359,350.651 M223.107,350.651l-0.924-9.529h-7.006l-1.027,9.529h-9.986l8.043-43.354h13.237
		l8.139,43.354H223.107z"/>
	<path fill="#C4CED4" d="M-239.345,132.591c16.771,0,30.365-13.596,30.365-30.364c0-16.769-13.595-30.363-30.365-30.363
		c-16.769,0-30.364,13.594-30.364,30.363C-269.709,118.995-256.113,132.591-239.345,132.591"/>
	<circle fill="none" stroke="#003DA6" stroke-width="1.029" cx="-239.345" cy="102.227" r="30.364"/>
	<circle fill="none" stroke="#000000" stroke-width="0.662" cx="-239.347" cy="102.205" r="29.757"/>
	<circle fill="none" stroke="#000000" stroke-width="0.509" cx="-239.347" cy="102.205" r="29.757"/>
	<path d="M-227.226,75.814c-0.677-1.198-6.56-3.805-12.113-3.805s-11.437,2.607-12.114,3.805v7.171h24.235L-227.226,75.814z"/>
	<path fill="none" stroke="#003DA6" stroke-width="0.842" d="M-227.226,75.814c-0.677-1.198-6.56-3.805-12.113-3.805
		s-11.437,2.607-12.114,3.805v7.171h24.235L-227.226,75.814z"/>
	<path fill="none" stroke="#003DA6" stroke-width="0.689" d="M-227.226,75.814c-0.677-1.198-6.56-3.805-12.113-3.805
		s-11.437,2.607-12.114,3.805v7.171h24.235L-227.226,75.814z"/>
	<path d="M-230.479,69.102c-3.103-1.465-5.931-1.898-8.973-1.93c-3.783-0.039-7.305,0.842-8.972,1.805v13.192h17.949
		L-230.479,69.102z"/>
	<path fill="none" stroke="#003DA6" stroke-width="0.843" d="M-230.479,69.102c-3.103-1.465-5.931-1.898-8.973-1.93
		c-3.783-0.039-7.305,0.842-8.972,1.805v13.192h17.949L-230.479,69.102z"/>
	<path fill="none" stroke="#003DA6" stroke-width="0.69" d="M-230.479,69.102c-3.103-1.465-5.931-1.898-8.973-1.93
		c-3.783-0.039-7.305,0.842-8.972,1.805v13.192h17.949L-230.479,69.102z"/>
	<path fill="#FFFFFF" d="M-242.485,69.255v0.16c-0.151,0.067-0.168,0.165-0.168,0.285v6.198c0,0.12,0.017,0.209,0.168,0.195v0.16
		l-1.146,0.152v-0.16c0.108-0.029,0.139-0.091,0.139-0.183c0-0.174-0.15-0.307-1.743-3.815v4.096c0,0.119,0.018,0.208,0.169,0.195
		v0.16l-1.146,0.304v-0.159c0.152-0.067,0.169-0.166,0.169-0.285v-6.161c0-0.12-0.017-0.208-0.169-0.195v-0.16
		c0.153-0.058,1.316-0.359,1.454-0.387v0.16c-0.138,0.051-0.169,0.139-0.169,0.219c0,0.147,1.044,2.359,1.467,3.275v-3.496
		c0-0.16-0.049-0.215-0.128-0.207v-0.16C-243.475,69.411-242.629,69.264-242.485,69.255"/>
	<path fill="none" stroke="#FFFFFF" stroke-width="0.179" d="M-242.485,69.255v0.16c-0.151,0.067-0.168,0.165-0.168,0.285v6.198
		c0,0.12,0.017,0.209,0.168,0.195v0.16l-1.146,0.152v-0.16c0.108-0.029,0.139-0.091,0.139-0.183c0-0.174-0.15-0.307-1.743-3.815
		v4.096c0,0.119,0.018,0.208,0.169,0.195v0.16l-1.146,0.304v-0.159c0.152-0.067,0.169-0.166,0.169-0.285v-6.161
		c0-0.12-0.017-0.208-0.169-0.195v-0.16c0.153-0.058,1.316-0.359,1.454-0.387v0.16c-0.138,0.051-0.169,0.139-0.169,0.219
		c0,0.147,1.044,2.359,1.467,3.275v-3.496c0-0.16-0.049-0.215-0.128-0.207v-0.16C-243.475,69.411-242.629,69.264-242.485,69.255z"/>
	<path fill="#FFFFFF" d="M-240.771,69.355c0-0.081-0.019-0.144-0.169-0.162v-0.108h2.298c0.652,0,1.129,0.741,1.129,1.636
		c0,0.543-0.243,1.637-0.579,1.746v0.018c0.404,0.163,0.699,0.867,0.699,1.537c0,0.723-0.363,2.098-1.219,2.098h-2.328v-0.109
		c0.15-0.018,0.169-0.082,0.169-0.162V69.355z M-239.867,72.015h0.82c0.52,0,0.651-0.813,0.651-1.175
		c0-0.362-0.132-0.796-0.651-0.796h-0.82V72.015z M-239.867,75.162h1.025c0.422,0,0.591-0.904,0.591-1.302
		c0-0.398-0.169-0.922-0.591-0.922h-1.025V75.162z"/>
	<path fill="none" stroke="#FFFFFF" stroke-width="0.179" d="M-240.771,69.355c0-0.081-0.019-0.144-0.169-0.162v-0.108h2.298
		c0.652,0,1.129,0.741,1.129,1.636c0,0.543-0.243,1.637-0.579,1.746v0.018c0.404,0.163,0.699,0.867,0.699,1.537
		c0,0.723-0.363,2.098-1.219,2.098h-2.328v-0.109c0.15-0.018,0.169-0.082,0.169-0.162V69.355z M-239.867,72.015h0.82
		c0.52,0,0.651-0.813,0.651-1.175c0-0.362-0.132-0.796-0.651-0.796h-0.82V72.015z M-239.867,75.162h1.025
		c0.422,0,0.591-0.904,0.591-1.302c0-0.398-0.169-0.922-0.591-0.922h-1.025V75.162z"/>
	<path fill="#FFFFFF" d="M-235.112,74.977c-0.157,0.975-0.192,1.095-0.192,1.178c0,0.084,0.023,0.145,0.108,0.166l-0.02,0.148
		l-1.074-0.177v-0.167c0.085-0.02,0.121-0.066,0.157-0.28c0.055-0.306,1.099-5.98,1.099-6.064c0-0.097-0.066-0.142-0.121-0.169
		v-0.168l1.574,0.403v0.167c-0.064-0.003-0.108,0.014-0.108,0.153c0,0.111,0.743,4.137,1.117,6.346
		c0.061,0.349,0.096,0.441,0.169,0.46v0.167l-1.188-0.304v-0.167c0.084,0.008,0.113-0.054,0.113-0.138
		c0-0.055-0.181-1.053-0.205-1.24L-235.112,74.977z M-234.961,73.853l1.121,0.287l-0.584-3.202L-234.961,73.853z"/>
	<path fill="none" stroke="#FFFFFF" stroke-width="0.179" d="M-235.112,74.977c-0.157,0.975-0.192,1.095-0.192,1.178
		c0,0.084,0.023,0.145,0.108,0.166l-0.02,0.148l-1.074-0.177v-0.167c0.085-0.02,0.121-0.066,0.157-0.28
		c0.055-0.306,1.099-5.98,1.099-6.064c0-0.097-0.066-0.142-0.121-0.169v-0.168l1.574,0.403v0.167
		c-0.064-0.003-0.108,0.014-0.108,0.153c0,0.111,0.743,4.137,1.117,6.346c0.061,0.349,0.096,0.441,0.169,0.46v0.167l-1.188-0.304
		v-0.167c0.084,0.008,0.113-0.054,0.113-0.138c0-0.055-0.181-1.053-0.205-1.24L-235.112,74.977z M-234.961,73.853l1.121,0.287
		l-0.584-3.202L-234.961,73.853z"/>
	<path fill="#CC6D19" d="M-254.389,118.901c9.675,8.495,24.178,7.274,32.395-2.727c8.217-10.003,7.038-24.997-2.636-33.492
		c-9.675-8.496-24.18-7.275-32.396,2.726C-265.242,95.411-264.062,110.405-254.389,118.901"/>
	<path fill="none" stroke="#000000" stroke-width="1.072" d="M-254.389,118.901c9.675,8.495,24.178,7.274,32.395-2.727
		c8.217-10.003,7.038-24.997-2.636-33.492c-9.675-8.496-24.18-7.275-32.396,2.726C-265.242,95.411-264.062,110.405-254.389,118.901z
		"/>
	<path fill="none" stroke="#000000" stroke-width="0.919" d="M-254.389,118.901c9.675,8.495,24.178,7.274,32.395-2.727
		c8.217-10.003,7.038-24.997-2.636-33.492c-9.675-8.496-24.18-7.275-32.396,2.726C-265.242,95.411-264.062,110.405-254.389,118.901z
		"/>
	<path fill="none" stroke="#000000" stroke-width="1.072" d="M-238.968,76.892c-5.911,13.578-6.562,36.01,2.224,47.351"/>
	<path fill="none" stroke="#000000" stroke-width="1.072" d="M-230.51,78.909c1.758,3.836,4.149,19.618-1.761,35.272
		c-1.415,3.744-2.237,5.111-1.918,5.99c0.563,1.547,2.635,1.916,5.751,1.277l0.464-0.099"/>
	<path fill="none" stroke="#000000" stroke-width="0.919" d="M-238.968,76.892c-5.911,13.578-6.562,36.01,2.224,47.351"/>
	<path fill="none" stroke="#000000" stroke-width="1.072" d="M-254.432,118.898c6.347,2.789,24.238,5.824,35.577-8.231"/>
	<path fill="none" stroke="#000000" stroke-width="0.919" d="M-254.432,118.898c6.347,2.789,24.238,5.824,35.577-8.231"/>
	<path fill="none" stroke="#000000" stroke-width="1.072" d="M-248.629,78.832c-1.96,2.532-13.991,20.653,0.185,37.106
		c1.873,2.173,4.566,3.776,4.872,5.351c0.279,1.438-0.439,2.316-1.158,2.717"/>
	<path fill="none" stroke="#000000" stroke-width="0.919" d="M-248.629,78.832c-1.96,2.532-13.991,20.653,0.185,37.106
		c1.873,2.173,4.566,3.776,4.872,5.351c0.279,1.438-0.439,2.316-1.158,2.717"/>
	<path fill="none" stroke="#000000" stroke-width="0.919" d="M-230.51,78.909c1.758,3.836,4.149,19.618-1.761,35.272
		c-1.415,3.744-2.237,5.111-1.918,5.99c0.563,1.547,2.635,1.916,5.751,1.277l0.464-0.099"/>
	<path d="M-240.31,86.047c-20.426,0-27.664,7.384-31.128,9.277v23.236c1.207,0.923,2.446,1.581,3.303,1.918
		c2.379-2.005,5.213-3.907,8.782-5.279c4.377-1.765,12.064-3.582,19.259-3.614c7.568-0.035,14.09,0.971,20.504,3.733
		c3.568,1.374,6.455,3.315,8.834,5.319c0.854-0.336,2.143-1.184,3.32-1.947V95.484C-212.546,91.913-218.428,86.047-240.31,86.047"/>
	<path fill="none" stroke="#000000" stroke-width="0.473" d="M-240.31,86.047c-20.426,0-27.664,7.384-31.128,9.277v23.236
		c1.207,0.923,2.446,1.581,3.303,1.918c2.379-2.005,5.213-3.907,8.782-5.279c4.377-1.765,12.064-3.582,19.259-3.614
		c7.568-0.035,14.09,0.971,20.504,3.733c3.568,1.374,6.455,3.315,8.834,5.319c0.854-0.336,2.143-1.184,3.32-1.947V95.484
		C-212.546,91.913-218.428,86.047-240.31,86.047z"/>
	<path fill="none" stroke="#000000" stroke-width="0.32" d="M-240.31,86.047c-20.426,0-27.664,7.384-31.128,9.277v23.236
		c1.207,0.923,2.446,1.581,3.303,1.918c2.379-2.005,5.213-3.907,8.782-5.279c4.377-1.765,12.064-3.582,19.259-3.614
		c7.568-0.035,14.09,0.971,20.504,3.733c3.568,1.374,6.455,3.315,8.834,5.319c0.854-0.336,2.143-1.184,3.32-1.947V95.484
		C-212.546,91.913-218.428,86.047-240.31,86.047z"/>
	<path fill="#003DA6" d="M-239.426,110.433c7.566-0.008,15.014,1.549,19.796,3.589c3.569,1.373,6.584,3.215,8.963,5.219
		c0.835-0.202,1.754-0.892,2.104-1.139V90.292c-6.181-5.432-17.668-9.37-30.862-9.37c-15.469,0-25.063,4.677-30.863,9.33v27.79
		c0,0,0.989,0.797,2.021,1.123c2.565-2.031,5.521-3.949,8.985-5.203C-253.323,111.753-246.515,110.484-239.426,110.433"/>
	<path fill="none" stroke="#000000" stroke-width="0.734" d="M-239.426,110.433c7.566-0.008,15.014,1.549,19.796,3.589
		c3.569,1.373,6.584,3.215,8.963,5.219c0.835-0.202,1.754-0.892,2.104-1.139V90.292c-6.181-5.432-17.668-9.37-30.862-9.37
		c-15.469,0-25.063,4.677-30.863,9.33v27.79c0,0,0.989,0.797,2.021,1.123c2.565-2.031,5.521-3.949,8.985-5.203
		C-253.323,111.753-246.515,110.484-239.426,110.433z"/>
	<path fill="none" stroke="#000000" stroke-width="0.581" d="M-239.426,110.433c7.566-0.008,15.014,1.549,19.796,3.589
		c3.569,1.373,6.584,3.215,8.963,5.219c0.835-0.202,1.754-0.892,2.104-1.139V90.292c-6.181-5.432-17.668-9.37-30.862-9.37
		c-15.469,0-25.063,4.677-30.863,9.33v27.79c0,0,0.989,0.797,2.021,1.123c2.565-2.031,5.521-3.949,8.985-5.203
		C-253.323,111.753-246.515,110.484-239.426,110.433z"/>
	<path fill="none" stroke="#000000" stroke-width="0.662" d="M-208.803,118.271c-6.788-6.271-18.553-9.8-30.623-9.8
		c-11.95,0-24.264,3.648-30.523,9.548"/>
	<path fill="none" stroke="#000000" stroke-width="0.662" d="M-270.288,92.719c6.397-5.163,15.592-9.77,30.782-9.77
		c13.112,0,24.687,3.948,30.961,9.866"/>
	<path fill="none" stroke="#000000" stroke-width="0.509" d="M-208.803,118.271c-6.788-6.271-18.553-9.8-30.623-9.8
		c-11.95,0-24.264,3.648-30.523,9.548"/>
	<path fill="none" stroke="#000000" stroke-width="0.509" d="M-270.288,92.719c6.397-5.163,15.592-9.77,30.782-9.77
		c13.112,0,24.687,3.948,30.961,9.866"/>
	<path fill="#FFFFFF" d="M-266.873,113.12v-1.941l0.859-0.52V94.086l-0.859,0.555v-1.986c1.808-1.244,5.578-3.131,6.066-3.283v6.297
		l-1.651-0.515v-2.989l-0.962,0.455l0.029,7.269l0.884-0.44v-0.986l0.998-0.405v4.092l-0.998,0.44v-1.02l-0.894,0.383l0.024,7.346
		l0.918-0.406v-3.457l1.651-1.73v6.467C-262.359,110.698-264.799,111.851-266.873,113.12"/>
	<path fill="#FFFFFF" d="M-260.019,109.871l-0.001-1.905l0.856-0.312l1.475-17.507l-0.808,0.3v-1.995
		c1.635-0.632,4.368-1.421,5.426-1.646v1.928l-0.679,0.207l1.738,16.73l0.729-0.105v1.949c-0.588,0.115-2.406,0.43-3.981,0.857v-1.9
		l0.732-0.209l-0.396-5.093l-1.534,0.572l-0.198,5.137l0.846-0.262v1.916C-256.811,108.802-258.863,109.407-260.019,109.871
		 M-255.361,98.949l-0.545-8.361l-0.391,8.693L-255.361,98.949z"/>
	<path fill="#FFFFFF" d="M-247.47,91.08c0,0-0.022-1.971-0.028-2.507c-0.01-0.781-0.002-0.781-0.523-0.734
		c-0.615,0.057-0.433,0.157-0.426,0.732c0.006,0.614,0.015,1.15,0.015,1.45c0,5.35,4.012,5.098,4.012,10.292l0.031,2.903
		c0.038,3.34-0.185,3.309-2.814,3.701c-2.356,0.352-3.243,0.689-3.367-2.703l-0.035-3.129l2.493,1.061c0,0,0.012,1.298,0.023,1.834
		c0.017,0.668,0.095,0.652,0.641,0.567c0.454-0.071,0.314,0.007,0.307-0.676c-0.01-0.899-0.027-2.383-0.031-2.754
		c-0.054-4.635-4.047-5.282-4.094-9.364l-0.027-2.427c-0.042-3.525-0.151-3.1,3.207-3.602c1.877-0.28,3.018-0.399,3.07,2.602v3.781
		L-247.47,91.08z"/>
	<path fill="#FFFFFF" d="M-235.222,106.542v-2.023l0.974,0.065V87.618l-0.974-0.115v-1.959c2.089,0.115,4.232,0.392,5.968,0.697
		v6.646l-1.603-1.527v-3.385l-0.881-0.115v7.616l0.881,0.134v-0.992l1.019,0.146v4.306l-1.019-0.205V97.76l-0.881-0.134v7.24
		l0.881,0.113v-3.345l1.603-0.749v6.36C-230.731,107.038-232.813,106.619-235.222,106.542"/>
	<path fill="#FFFFFF" d="M-224.472,87.232c2.56,0.658,3.331,1.932,3.341,4.73l0.004,2.644c0.006,1.361-0.707,2.799-2.22,2.283
		l0.001,0.051c1.712,0.499,1.985,1.487,1.994,3.565l0.012,5.354c0.006,1.771,0.272,2.629,0.428,3.386l-2.547-0.763
		c-0.188-0.718-0.228-1.146-0.232-2.401l-0.016-5.812c-0.003-1.128-0.238-2.076-1.2-2.284v8.277l0.586,0.156l-0.045,1.847
		c-0.43-0.103-2.784-0.709-3.972-0.86v-1.854l0.963,0.134V88.549l-0.963-0.2v-1.986C-228.338,86.363-225.2,87.043-224.472,87.232
		 M-224.935,95.88l0.336,0.071c0.442,0.096,0.897-0.268,0.894-1.141l-0.008-3.722c-0.003-0.873-0.461-1.074-0.903-1.17l-0.318-0.071
		V95.88z"/>
	<path fill="#FFFFFF" d="M-220.139,109.515v-2.026l0.663,0.233l0.003-16.952l-0.666-0.278v-1.887
		c1.162,0.457,4.043,1.706,4.48,1.998l1.332,15.324l0.012-12.581l-0.421-0.257l-0.014-1.978c0.694,0.413,1.418,0.77,3.184,2.038
		l0.022,1.991l-0.703-0.498l0.035,18.495c-0.15-0.088-2.599-1.482-3.145-1.721l-1.829-17.694v16.907
		C-217.185,110.63-219.738,109.608-220.139,109.515"/>
	<path fill="#FFFFFF" d="M-236.266,85.504v6.574l-1.766-0.677v-3.996h-0.879v16.955l0.926,0.014v2.037
		c-0.549-0.051-3.466,0.021-4.304,0.043v-2.08h0.923V87.405h-0.859l0.004,3.995l-1.76,0.709l-0.015-6.584
		C-243.424,85.403-236.87,85.315-236.266,85.504"/>
	<polygon points="-267.356,92.936 -267.791,93.19 -267.791,95.176 -267.356,94.921 	"/>
	<polygon fill="none" stroke="#003DA6" stroke-width="0.153" points="-267.356,92.936 -267.791,93.19 -267.791,95.176 
		-267.356,94.921 	"/>
	<polygon points="-266.933,95.223 -266.499,94.987 -266.499,110.333 -266.933,110.582 	"/>
	<polygon fill="none" stroke="#003DA6" stroke-width="0.153" points="-266.933,95.223 -266.499,94.987 -266.499,110.333 
		-266.933,110.582 	"/>
	<polygon points="-267.356,111.459 -267.353,113.394 -267.785,113.657 -267.785,111.714 	"/>
	<polyline fill="none" stroke="#003DA6" stroke-width="0.153" points="-267.356,111.459 -267.353,113.394 -267.785,113.657 
		-267.785,111.714 -267.356,111.459 	"/>
	<polygon points="-261.724,95.815 -262.945,95.433 -262.945,95.941 -261.724,96.324 	"/>
	<polygon fill="none" stroke="#003DA6" stroke-width="0.153" points="-261.724,95.815 -262.945,95.433 -262.945,95.941 
		-261.724,96.324 	"/>
	<polygon points="-262.906,105.175 -261.367,103.584 -261.367,102.87 -262.906,104.487 	"/>
	<polygon fill="none" stroke="#003DA6" stroke-width="0.153" points="-262.906,105.175 -261.367,103.584 -261.367,102.87 
		-262.906,104.487 	"/>
	<polygon points="-258.979,88.629 -258.984,90.58 -259.413,90.75 -259.413,88.754 	"/>
	<polygon fill="none" stroke="#003DA6" stroke-width="0.153" points="-258.979,88.629 -258.984,90.58 -259.413,90.75 
		-259.413,88.754 	"/>
	<polygon points="-259.646,107.347 -258.211,90.897 -258.643,91.064 -260.08,107.479 	"/>
	<polygon fill="none" stroke="#003DA6" stroke-width="0.153" points="-259.646,107.347 -258.211,90.897 -258.643,91.064 
		-260.08,107.479 	"/>
	<polygon points="-255.36,101.883 -255.062,105.952 -255.494,106.044 -255.801,102.017 	"/>
	<polygon fill="none" stroke="#003DA6" stroke-width="0.153" points="-255.36,101.883 -255.062,105.952 -255.494,106.044 
		-255.801,102.017 	"/>
	<path d="M-251.09,100.812l0.043,3.834c0.015,0.152,0.113,0.425,0.127,0.489l-0.424,0.066c0,0-0.084-0.139-0.113-0.264
		c-0.08-0.331-0.051-4.304-0.051-4.304L-251.09,100.812z"/>
	<path fill="none" stroke="#003DA6" stroke-width="0.153" d="M-251.09,100.812l0.043,3.834c0.015,0.152,0.113,0.425,0.127,0.489
		l-0.424,0.066c0,0-0.084-0.139-0.113-0.264c-0.08-0.331-0.051-4.304-0.051-4.304L-251.09,100.812z"/>
	<path d="M-248.151,100.122c-0.257-1.656-0.991-2.385-2.713-4.78c-0.276-0.383-1.12-1.731-1.152-2.406
		c-0.135-0.612-0.251-4.114-0.18-4.547c0.047-0.28-0.1-1.371,0.787-1.961c-0.327,0.357-0.302,0.929-0.342,1.897
		c-0.04,0.968,0.032,3.88,0.141,4.509c0.137,0.789,0.662,1.651,1.063,2.331c0.44,0.751,2.761,3.06,2.844,5.13
		c0.016,0.188,0.036,0.8,0.028,1.156l-0.411-0.165C-248.061,101.184-248.098,100.397-248.151,100.122"/>
	<path fill="none" stroke="#003DA6" stroke-width="0.153" d="M-248.151,100.122c-0.257-1.656-0.991-2.385-2.713-4.78
		c-0.276-0.383-1.12-1.731-1.152-2.406c-0.135-0.612-0.251-4.114-0.18-4.547c0.047-0.28-0.1-1.371,0.787-1.961
		c-0.327,0.357-0.302,0.929-0.342,1.897c-0.04,0.968,0.032,3.88,0.141,4.509c0.137,0.789,0.662,1.651,1.063,2.331
		c0.44,0.751,2.761,3.06,2.844,5.13c0.016,0.188,0.036,0.8,0.028,1.156l-0.411-0.165
		C-248.061,101.184-248.098,100.397-248.151,100.122z"/>
	<path d="M-247.503,92.139c-0.269-0.181-0.242-0.68-0.242-0.68l0.021,0.009l1.975,0.81l0.005,0.549L-247.503,92.139z"/>
	<path fill="none" stroke="#003DA6" stroke-width="0.153" d="M-247.503,92.139c-0.269-0.181-0.242-0.68-0.242-0.68l0.021,0.009
		l1.975,0.81l0.005,0.549L-247.503,92.139z"/>
	<polygon points="-242.288,92.439 -241.848,92.268 -241.848,103.876 -242.288,103.876 	"/>
	<polygon fill="none" stroke="#003DA6" stroke-width="0.153" points="-242.288,92.439 -241.848,92.268 -241.848,103.876 
		-242.288,103.876 	"/>
	<rect x="-243.205" y="104.4" width="0.433" height="2.091"/>
	<rect x="-243.205" y="104.4" fill="none" stroke="#003DA6" stroke-width="0.153" width="0.433" height="2.091"/>
	<polygon points="-238.456,92.324 -236.684,92.961 -236.684,92.439 -238.456,91.802 	"/>
	<polygon fill="none" stroke="#003DA6" stroke-width="0.153" points="-238.456,92.324 -236.684,92.961 -236.684,92.439 
		-238.456,91.802 	"/>
	<polygon points="-235.194,87.991 -234.723,88.044 -234.723,104.066 -235.207,104.048 	"/>
	<polygon fill="none" stroke="#003DA6" stroke-width="0.153" points="-235.194,87.991 -234.723,88.044 -234.723,104.066 
		-235.207,104.048 	"/>
	<polygon points="-235.703,104.476 -235.703,106.513 -236.175,106.487 -236.175,104.461 	"/>
	<polygon fill="none" stroke="#003DA6" stroke-width="0.153" points="-235.703,104.476 -235.703,106.513 -236.175,106.487 
		-236.175,104.461 	"/>
	<polygon points="-230.214,92.605 -230.214,93.228 -231.367,92.21 -231.367,91.522 	"/>
	<polygon fill="none" stroke="#003DA6" stroke-width="0.153" points="-230.214,92.605 -230.214,93.228 -231.367,92.21 
		-231.367,91.522 	"/>
	<polygon points="-231.283,100.819 -230.036,100.233 -230.036,100.743 -231.283,101.329 	"/>
	<polygon fill="none" stroke="#003DA6" stroke-width="0.153" points="-231.283,100.819 -230.036,100.233 -230.036,100.743 
		-231.283,101.329 	"/>
	<polygon points="-228.314,88.998 -227.858,89.096 -227.858,105.162 -228.314,105.087 	"/>
	<polygon fill="none" stroke="#003DA6" stroke-width="0.153" points="-228.314,88.998 -227.858,89.096 -227.858,105.162 
		-228.314,105.087 	"/>
	<path d="M-221.309,88.165l-0.003,0.643c0.09,0.081,0.396,1.037,0.436,1.383v-1.862L-221.309,88.165z"/>
	<path fill="none" stroke="#003DA6" stroke-width="0.153" d="M-221.309,88.165l-0.003,0.643c0.09,0.081,0.396,1.037,0.436,1.383
		v-1.862L-221.309,88.165z"/>
	<polygon points="-220.393,90.976 -219.956,91.141 -219.956,107.054 -220.396,106.907 	"/>
	<polygon fill="none" stroke="#003DA6" stroke-width="0.153" points="-220.393,90.976 -219.956,91.141 -219.956,107.054 
		-220.396,106.907 	"/>
	<polygon points="-216.727,102.557 -216.752,106.045 -216.271,110.969 -215.84,111.213 	"/>
	<polygon fill="none" stroke="#003DA6" stroke-width="0.153" points="-216.727,102.557 -216.752,106.045 -216.271,110.969 
		-215.84,111.213 	"/>
	<path d="M-259.282,118.654l0.253-0.194c0.276-0.211,0.297-0.427,0.186-0.571c-0.173-0.228-0.347-0.208-0.59-0.022l-1.653,1.268
		c-0.244,0.187-0.307,0.35-0.134,0.574c0.156,0.203,0.326,0.182,0.538,0.02l0.394-0.303l0.428,0.561l-0.375,0.288
		c-0.46,0.353-1.043,0.369-1.472-0.19c-0.45-0.588-0.283-1.146,0.179-1.5l1.68-1.287c0.462-0.354,1.045-0.369,1.494,0.218
		c0.43,0.561,0.23,1.144-0.257,1.518l-0.241,0.183L-259.282,118.654z"/>
	<path fill="none" stroke="#C4CED4" stroke-width="0.153" d="M-259.282,118.654l0.253-0.194c0.276-0.211,0.297-0.427,0.186-0.571
		c-0.173-0.228-0.347-0.208-0.59-0.022l-1.653,1.268c-0.244,0.187-0.307,0.35-0.134,0.574c0.156,0.203,0.326,0.182,0.538,0.02
		l0.394-0.303l0.428,0.561l-0.375,0.288c-0.46,0.353-1.043,0.369-1.472-0.19c-0.45-0.588-0.283-1.146,0.179-1.5l1.68-1.287
		c0.462-0.354,1.045-0.369,1.494,0.218c0.43,0.561,0.23,1.144-0.257,1.518l-0.241,0.183L-259.282,118.654z"/>
	<path d="M-256.411,121.255c0.379-0.441,0.946-0.577,1.508-0.094s0.511,1.064,0.133,1.504l-1.382,1.608
		c-0.378,0.439-0.945,0.575-1.507,0.093s-0.514-1.064-0.135-1.504L-256.411,121.255z M-257.247,123.309
		c-0.2,0.233-0.228,0.405-0.012,0.591s0.383,0.133,0.582-0.101l1.359-1.58c0.201-0.233,0.229-0.405,0.012-0.591
		c-0.217-0.187-0.381-0.133-0.582,0.101L-257.247,123.309z"/>
	<path fill="none" stroke="#C4CED4" stroke-width="0.153" d="M-256.411,121.255c0.379-0.441,0.946-0.577,1.508-0.094
		s0.511,1.064,0.133,1.504l-1.382,1.608c-0.378,0.439-0.945,0.575-1.507,0.093s-0.514-1.064-0.135-1.504L-256.411,121.255z
		 M-257.247,123.309c-0.2,0.233-0.228,0.405-0.012,0.591s0.383,0.133,0.582-0.101l1.359-1.58c0.201-0.233,0.229-0.405,0.012-0.591
		c-0.217-0.187-0.381-0.133-0.582,0.101L-257.247,123.309z"/>
	<polygon points="-253.577,126.994 -251.6,123.39 -251.025,123.705 -251.403,126.181 -251.394,126.187 -250.262,124.124 
		-249.702,124.431 -251.68,128.035 -252.219,127.739 -251.773,125.056 -251.783,125.05 -253.02,127.3 	"/>
	<polygon fill="none" stroke="#C4CED4" stroke-width="0.153" points="-253.577,126.994 -251.6,123.39 -251.025,123.705 
		-251.403,126.181 -251.394,126.187 -250.262,124.124 -249.702,124.431 -251.68,128.035 -252.219,127.739 -251.773,125.056 
		-251.783,125.05 -253.02,127.3 	"/>
	<polygon points="-248.251,129.472 -247.04,125.544 -245.157,126.125 -245.34,126.712 -246.547,126.34 -246.858,127.351 
		-245.956,127.63 -246.137,128.217 -247.04,127.938 -247.575,129.68 	"/>
	<polygon fill="none" stroke="#C4CED4" stroke-width="0.153" points="-248.251,129.472 -247.04,125.544 -245.157,126.125 
		-245.34,126.712 -246.547,126.34 -246.858,127.351 -245.956,127.63 -246.137,128.217 -247.04,127.938 -247.575,129.68 	"/>
	<polygon points="-242.857,130.752 -242.438,126.662 -240.559,126.854 -240.621,127.467 -241.799,127.346 -241.906,128.399 
		-241,128.493 -241.063,129.104 -241.97,129.011 -242.093,130.212 -240.835,130.341 -240.896,130.952 	"/>
	<polygon fill="none" stroke="#C4CED4" stroke-width="0.153" points="-242.857,130.752 -242.438,126.662 -240.559,126.854 
		-240.621,127.467 -241.799,127.346 -241.906,128.399 -241,128.493 -241.063,129.104 -241.97,129.011 -242.093,130.212 
		-240.835,130.341 -240.896,130.952 	"/>
	<path d="M-236.604,130.895l-0.703,0.067l-0.401-4.092l0.985-0.097c0.789-0.077,1.226,0.218,1.311,1.091
		c0.063,0.658-0.164,0.949-0.394,1.08l0.777,1.797l-0.715,0.069l-0.664-1.647c-0.089,0.021-0.236,0.041-0.362,0.054
		L-236.604,130.895z M-236.826,128.639l0.25-0.024c0.379-0.037,0.507-0.193,0.459-0.681c-0.049-0.487-0.202-0.616-0.583-0.578
		l-0.249,0.024L-236.826,128.639z"/>
	<path fill="none" stroke="#C4CED4" stroke-width="0.153" d="M-236.604,130.895l-0.703,0.067l-0.401-4.092l0.985-0.097
		c0.789-0.077,1.226,0.218,1.311,1.091c0.063,0.658-0.164,0.949-0.394,1.08l0.777,1.797l-0.715,0.069l-0.664-1.647
		c-0.089,0.021-0.236,0.041-0.362,0.054L-236.604,130.895z M-236.826,128.639l0.25-0.024c0.379-0.037,0.507-0.193,0.459-0.681
		c-0.049-0.487-0.202-0.616-0.583-0.578l-0.249,0.024L-236.826,128.639z"/>
	<polygon points="-231.434,129.802 -232.652,125.874 -230.847,125.315 -230.664,125.902 -231.794,126.253 -231.482,127.265 
		-230.61,126.994 -230.428,127.583 -231.3,127.853 -230.941,129.005 -229.734,128.632 -229.551,129.218 	"/>
	<polygon fill="none" stroke="#C4CED4" stroke-width="0.153" points="-231.434,129.802 -232.652,125.874 -230.847,125.315 
		-230.664,125.902 -231.794,126.253 -231.482,127.265 -230.61,126.994 -230.428,127.583 -231.3,127.853 -230.941,129.005 
		-229.734,128.632 -229.551,129.218 	"/>
	<polygon points="-226.162,127.694 -228.147,124.093 -227.574,123.776 -225.685,125.421 -225.675,125.416 -226.812,123.356 
		-226.252,123.049 -224.268,126.649 -224.805,126.946 -226.834,125.131 -226.844,125.136 -225.604,127.386 	"/>
	<polygon fill="none" stroke="#C4CED4" stroke-width="0.153" points="-226.162,127.694 -228.147,124.093 -227.574,123.776 
		-225.685,125.421 -225.675,125.416 -226.812,123.356 -226.252,123.049 -224.268,126.649 -224.805,126.946 -226.834,125.131 
		-226.844,125.136 -225.604,127.386 	"/>
	<path d="M-222.037,121.515l-0.209-0.242c-0.227-0.263-0.445-0.271-0.582-0.151c-0.216,0.187-0.188,0.358,0.013,0.59l1.362,1.578
		c0.199,0.231,0.364,0.285,0.58,0.099c0.195-0.166,0.163-0.334-0.013-0.537l-0.323-0.375l0.534-0.461l0.31,0.357
		c0.379,0.439,0.43,1.021-0.105,1.48c-0.559,0.484-1.127,0.351-1.506-0.09l-1.384-1.603c-0.379-0.438-0.432-1.021,0.13-1.504
		c0.535-0.462,1.128-0.296,1.53,0.169l0.197,0.229L-222.037,121.515z"/>
	<path fill="none" stroke="#C4CED4" stroke-width="0.153" d="M-222.037,121.515l-0.209-0.242c-0.227-0.263-0.445-0.271-0.582-0.151
		c-0.216,0.187-0.188,0.358,0.013,0.59l1.362,1.578c0.199,0.231,0.364,0.285,0.58,0.099c0.195-0.166,0.163-0.334-0.013-0.537
		l-0.323-0.375l0.534-0.461l0.31,0.357c0.379,0.439,0.43,1.021-0.105,1.48c-0.559,0.484-1.127,0.351-1.506-0.09l-1.384-1.603
		c-0.379-0.438-0.432-1.021,0.13-1.504c0.535-0.462,1.128-0.296,1.53,0.169l0.197,0.229L-222.037,121.515z"/>
	<polygon points="-217.307,120.478 -220.558,117.965 -219.402,116.47 -218.916,116.847 -219.641,117.782 -218.803,118.431 
		-218.245,117.709 -217.758,118.085 -218.316,118.806 -217.36,119.543 -216.587,118.543 -216.103,118.919 	"/>
	<polygon fill="none" stroke="#C4CED4" stroke-width="0.153" points="-217.307,120.478 -220.558,117.965 -219.402,116.47 
		-218.916,116.847 -219.641,117.782 -218.803,118.431 -218.245,117.709 -217.758,118.085 -218.316,118.806 -217.36,119.543 
		-216.587,118.543 -216.103,118.919 	"/>
	<path fill="#FFFFFF" d="M-259.441,118.335l0.253-0.195c0.275-0.21,0.296-0.426,0.186-0.57c-0.173-0.227-0.347-0.209-0.591-0.022
		l-1.653,1.267c-0.243,0.188-0.306,0.351-0.133,0.575c0.155,0.203,0.325,0.181,0.538,0.019l0.392-0.301l0.43,0.56l-0.375,0.288
		c-0.46,0.353-1.044,0.369-1.473-0.191c-0.449-0.587-0.283-1.146,0.178-1.499l1.682-1.286c0.46-0.354,1.043-0.369,1.493,0.217
		c0.43,0.56,0.229,1.144-0.258,1.518l-0.239,0.184L-259.441,118.335z"/>
	<path fill="#FFFFFF" d="M-256.571,120.935c0.38-0.44,0.947-0.576,1.508-0.093c0.562,0.483,0.511,1.064,0.133,1.505l-1.381,1.607
		c-0.379,0.439-0.946,0.576-1.508,0.092c-0.562-0.482-0.513-1.064-0.134-1.504L-256.571,120.935z M-257.406,122.989
		c-0.2,0.232-0.229,0.404-0.013,0.591c0.216,0.187,0.383,0.133,0.583-0.101l1.359-1.58c0.201-0.233,0.228-0.405,0.011-0.592
		c-0.216-0.185-0.381-0.133-0.582,0.102L-257.406,122.989z"/>
	<polygon fill="#FFFFFF" points="-253.736,126.675 -251.76,123.07 -251.185,123.386 -251.562,125.861 -251.553,125.866 
		-250.422,123.805 -249.861,124.11 -251.841,127.716 -252.38,127.419 -251.933,124.735 -251.943,124.729 -253.18,126.981 	"/>
	<polygon fill="#FFFFFF" points="-248.41,129.152 -247.2,125.225 -245.317,125.806 -245.499,126.393 -246.706,126.021 
		-247.018,127.032 -246.115,127.311 -246.296,127.897 -247.199,127.62 -247.735,129.36 	"/>
	<polygon fill="#FFFFFF" points="-243.017,130.433 -242.598,126.343 -240.718,126.535 -240.78,127.147 -241.958,127.026 
		-242.067,128.079 -241.16,128.173 -241.223,128.785 -242.129,128.691 -242.252,129.893 -240.994,130.021 -241.056,130.634 	"/>
	<path fill="#FFFFFF" d="M-236.765,130.575l-0.703,0.068l-0.401-4.093l0.986-0.097c0.789-0.077,1.225,0.218,1.311,1.092
		c0.062,0.657-0.164,0.948-0.395,1.079l0.777,1.796l-0.714,0.07l-0.666-1.646c-0.088,0.021-0.235,0.04-0.36,0.053L-236.765,130.575z
		 M-236.985,128.319l0.249-0.025c0.38-0.037,0.508-0.193,0.46-0.68c-0.049-0.488-0.203-0.616-0.583-0.578l-0.25,0.023
		L-236.985,128.319z"/>
	<polygon fill="#FFFFFF" points="-231.673,129.522 -232.893,125.596 -231.086,125.036 -230.903,125.622 -232.034,125.974 
		-231.721,126.985 -230.85,126.716 -230.668,127.304 -231.539,127.573 -231.18,128.727 -229.973,128.353 -229.79,128.939 	"/>
	<polygon fill="#FFFFFF" points="-226.481,127.534 -228.468,123.934 -227.893,123.618 -226.005,125.262 -225.996,125.256 
		-227.132,123.196 -226.57,122.889 -224.587,126.489 -225.125,126.786 -227.153,124.971 -227.164,124.977 -225.924,127.226 	"/>
	<path fill="#FFFFFF" d="M-222.397,121.354l-0.208-0.24c-0.228-0.264-0.444-0.272-0.583-0.154c-0.215,0.188-0.188,0.359,0.014,0.592
		l1.362,1.578c0.2,0.232,0.366,0.285,0.581,0.098c0.194-0.167,0.162-0.334-0.014-0.538l-0.322-0.374l0.533-0.461l0.311,0.357
		c0.379,0.439,0.429,1.021-0.106,1.482c-0.56,0.482-1.127,0.348-1.507-0.091l-1.384-1.603c-0.379-0.44-0.429-1.021,0.131-1.504
		c0.535-0.463,1.128-0.297,1.529,0.168l0.198,0.228L-222.397,121.354z"/>
	<polygon fill="#FFFFFF" points="-217.665,120.397 -220.917,117.885 -219.762,116.389 -219.275,116.766 -219.999,117.702 
		-219.163,118.35 -218.604,117.63 -218.117,118.006 -218.675,118.726 -217.719,119.464 -216.947,118.464 -216.462,118.84 	"/>
	<path fill="#BB9753" d="M-244.321,270.75c17.143,0,31.042-13.912,31.042-31.072c0-17.159-13.899-31.07-31.042-31.07
		c-17.146,0-31.043,13.911-31.043,31.07C-275.364,256.838-261.467,270.75-244.321,270.75"/>
	<ellipse fill="none" stroke="#DD0031" stroke-width="1.049" cx="-244.321" cy="239.679" rx="31.042" ry="31.071"/>
	<ellipse fill="none" stroke="#231F20" stroke-width="0.683" cx="-244.32" cy="239.641" rx="30.534" ry="30.562"/>
	<ellipse fill="none" stroke="#231F20" stroke-width="0.524" cx="-244.32" cy="239.641" rx="30.534" ry="30.562"/>
	<path fill="#231F20" d="M-231.655,212.254c-0.696-1.233-6.751-3.916-12.467-3.916c-5.715,0-11.771,2.683-12.466,3.916v7.379h24.94
		L-231.655,212.254z"/>
	<path fill="none" stroke="#DD0031" stroke-width="0.803" d="M-231.655,212.254c-0.696-1.233-6.751-3.916-12.467-3.916
		c-5.715,0-11.771,2.683-12.466,3.916v7.379h24.94L-231.655,212.254z"/>
	<path fill="none" stroke="#DD0031" stroke-width="0.709" d="M-231.655,212.254c-0.696-1.233-6.751-3.916-12.467-3.916
		c-5.715,0-11.771,2.683-12.466,3.916v7.379h24.94L-231.655,212.254z"/>
	<path fill="#231F20" d="M-235.004,205.347c-3.191-1.509-6.104-1.954-9.233-1.986c-3.894-0.041-7.518,0.866-9.234,1.857v13.576
		h18.474L-235.004,205.347z"/>
	<path fill="none" stroke="#DD0031" stroke-width="0.805" d="M-235.004,205.347c-3.191-1.509-6.104-1.954-9.233-1.986
		c-3.894-0.041-7.518,0.866-9.234,1.857v13.576h18.474L-235.004,205.347z"/>
	<path fill="none" stroke="#DD0031" stroke-width="0.711" d="M-235.004,205.347c-3.191-1.509-6.104-1.954-9.233-1.986
		c-3.894-0.041-7.518,0.866-9.234,1.857v13.576h18.474L-235.004,205.347z"/>
	<path fill="#FFFFFF" d="M-247.359,205.503v0.165c-0.156,0.068-0.174,0.17-0.174,0.292v6.38c0,0.123,0.018,0.215,0.174,0.201v0.165
		l-1.182,0.156v-0.165c0.113-0.029,0.145-0.094,0.145-0.188c0-0.179-0.155-0.315-1.794-3.927v4.216c0,0.124,0.018,0.214,0.173,0.2
		v0.165l-1.18,0.313v-0.165c0.156-0.068,0.175-0.17,0.175-0.293v-6.34c0-0.124-0.019-0.215-0.175-0.201v-0.165
		c0.158-0.059,1.354-0.368,1.497-0.397v0.166c-0.143,0.051-0.173,0.142-0.173,0.224c0,0.151,1.073,2.43,1.508,3.369v-3.596
		c0-0.166-0.049-0.222-0.13-0.213V205.7C-248.378,205.664-247.508,205.512-247.359,205.503"/>
	<path fill="none" stroke="#FFFFFF" stroke-width="0.185" d="M-247.359,205.503v0.165c-0.156,0.068-0.174,0.17-0.174,0.292v6.38
		c0,0.123,0.018,0.215,0.174,0.201v0.165l-1.182,0.156v-0.165c0.113-0.029,0.145-0.094,0.145-0.188c0-0.179-0.155-0.315-1.794-3.927
		v4.216c0,0.124,0.018,0.214,0.173,0.2v0.165l-1.18,0.313v-0.165c0.156-0.068,0.175-0.17,0.175-0.293v-6.34
		c0-0.124-0.019-0.215-0.175-0.201v-0.165c0.158-0.059,1.354-0.368,1.497-0.397v0.166c-0.143,0.051-0.173,0.142-0.173,0.224
		c0,0.151,1.073,2.43,1.508,3.369v-3.596c0-0.166-0.049-0.222-0.13-0.213V205.7C-248.378,205.664-247.508,205.512-247.359,205.503z"
		/>
	<path fill="#FFFFFF" d="M-245.597,205.583c0-0.084-0.019-0.149-0.173-0.168v-0.111h2.364c0.67,0,1.161,0.763,1.161,1.684
		c0,0.56-0.248,1.685-0.597,1.796v0.02c0.417,0.167,0.721,0.893,0.721,1.582c0,0.744-0.372,2.159-1.254,2.159h-2.396v-0.111
		c0.154-0.019,0.173-0.085,0.173-0.168V205.583z M-244.666,208.318h0.845c0.534,0,0.671-0.838,0.671-1.209
		c0-0.373-0.137-0.819-0.671-0.819h-0.845V208.318z M-244.666,211.557h1.056c0.435,0,0.608-0.93,0.608-1.34
		c0-0.409-0.174-0.948-0.608-0.948h-1.056V211.557z"/>
	<path fill="none" stroke="#FFFFFF" stroke-width="0.185" d="M-245.597,205.583c0-0.084-0.019-0.149-0.173-0.168v-0.111h2.364
		c0.67,0,1.161,0.763,1.161,1.684c0,0.56-0.248,1.685-0.597,1.796v0.02c0.417,0.167,0.721,0.893,0.721,1.582
		c0,0.744-0.372,2.159-1.254,2.159h-2.396v-0.111c0.154-0.019,0.173-0.085,0.173-0.168V205.583z M-244.666,208.318h0.845
		c0.534,0,0.671-0.838,0.671-1.209c0-0.373-0.137-0.819-0.671-0.819h-0.845V208.318z M-244.666,211.557h1.056
		c0.435,0,0.608-0.93,0.608-1.34c0-0.409-0.174-0.948-0.608-0.948h-1.056V211.557z"/>
	<path fill="#FFFFFF" d="M-239.772,211.366c-0.161,1.003-0.198,1.127-0.198,1.213s0.024,0.149,0.112,0.171l-0.021,0.153
		l-1.104-0.184v-0.172c0.087-0.021,0.124-0.068,0.161-0.288c0.055-0.313,1.132-6.155,1.132-6.24c0-0.102-0.069-0.147-0.124-0.176
		v-0.17l1.62,0.414v0.172c-0.068-0.003-0.112,0.014-0.112,0.156c0,0.115,0.763,4.26,1.147,6.532
		c0.062,0.358,0.101,0.454,0.175,0.473v0.172l-1.224-0.314v-0.17c0.087,0.007,0.118-0.056,0.118-0.142
		c0-0.058-0.186-1.083-0.211-1.275L-239.772,211.366z M-239.617,210.209l1.154,0.298l-0.602-3.298L-239.617,210.209z"/>
	<path fill="none" stroke="#FFFFFF" stroke-width="0.185" d="M-239.772,211.366c-0.161,1.003-0.198,1.127-0.198,1.213
		s0.024,0.149,0.112,0.171l-0.021,0.153l-1.104-0.184v-0.172c0.087-0.021,0.124-0.068,0.161-0.288
		c0.055-0.313,1.132-6.155,1.132-6.24c0-0.102-0.069-0.147-0.124-0.176v-0.17l1.62,0.414v0.172
		c-0.068-0.003-0.112,0.014-0.112,0.156c0,0.115,0.763,4.26,1.147,6.532c0.062,0.358,0.101,0.454,0.175,0.473v0.172l-1.224-0.314
		v-0.17c0.087,0.007,0.118-0.056,0.118-0.142c0-0.058-0.186-1.083-0.211-1.275L-239.772,211.366z M-239.617,210.209l1.154,0.298
		l-0.602-3.298L-239.617,210.209z"/>
	<path fill="#CC6D19" d="M-259.642,256.968c9.922,8.743,24.798,7.487,33.226-2.808c8.428-10.292,7.217-25.724-2.705-34.468
		c-9.922-8.743-24.799-7.485-33.227,2.808C-270.774,232.792-269.563,248.225-259.642,256.968"/>
	<path fill="none" stroke="#231F20" stroke-width="1.103" d="M-259.642,256.968c9.922,8.743,24.798,7.487,33.226-2.808
		c8.428-10.292,7.217-25.724-2.705-34.468c-9.922-8.743-24.799-7.485-33.227,2.808
		C-270.774,232.792-269.563,248.225-259.642,256.968z"/>
	<path fill="none" stroke="#231F20" stroke-width="0.945" d="M-259.642,256.968c9.922,8.743,24.798,7.487,33.226-2.808
		c8.428-10.292,7.217-25.724-2.705-34.468c-9.922-8.743-24.799-7.485-33.227,2.808
		C-270.774,232.792-269.563,248.225-259.642,256.968z"/>
	<path fill="none" stroke="#231F20" stroke-width="1.103" d="M-247.191,213.975c-6.083,13.972-3.288,36.822,5.753,48.493"/>
	<path fill="none" stroke="#231F20" stroke-width="1.103" d="M-259.642,256.968c6.532,2.87,24.943,5.994,36.614-8.474"/>
	<path fill="none" stroke="#231F20" stroke-width="1.103" d="M-256.314,217.386c-1.645,2.631-11.754,19.604,2.836,36.535
		c1.927,2.235,4.698,3.887,5.013,5.507c0.287,1.479-0.451,2.383-1.191,2.794"/>
	<path fill="none" stroke="#231F20" stroke-width="1.103" d="M-238.644,214.632c1.809,2.138,7.891,21.371,1.809,37.48
		c-1.456,3.854-2.302,5.26-1.973,6.165c0.579,1.592,2.712,1.972,5.918,1.314"/>
	<path fill="none" stroke="#231F20" stroke-width="0.945" d="M-247.191,213.975c-6.083,13.972-3.288,36.822,5.753,48.493"/>
	<path fill="none" stroke="#231F20" stroke-width="0.945" d="M-259.642,256.968c6.532,2.87,24.943,5.994,36.614-8.474"/>
	<path fill="none" stroke="#231F20" stroke-width="0.945" d="M-256.314,217.386c-1.645,2.631-11.754,19.604,2.836,36.535
		c1.927,2.235,4.698,3.887,5.013,5.507c0.287,1.479-0.451,2.383-1.191,2.794"/>
	<path fill="none" stroke="#231F20" stroke-width="0.945" d="M-238.644,214.632c1.809,2.138,7.891,21.371,1.809,37.48
		c-1.456,3.854-2.302,5.26-1.973,6.165c0.579,1.592,2.712,1.972,5.918,1.314"/>
	<polygon fill="#231F20" points="-244.331,219.667 -211.437,231.229 -211.437,245.632 -244.224,258.804 -277.178,245.632 
		-277.178,231.16 	"/>
	<polygon fill="none" stroke="#231F20" stroke-width="0.158" points="-244.331,219.667 -211.437,231.229 -211.437,245.632 
		-244.224,258.804 -277.178,245.632 -277.178,231.16 	"/>
	<polygon fill="#DD0031" points="-244.396,216.093 -212.848,227.88 -212.848,244.993 -244.291,257.468 -275.736,244.993 
		-275.736,227.88 	"/>
	<polygon fill="none" stroke="#231F20" stroke-width="1.103" points="-244.396,216.093 -212.848,227.88 -212.848,244.993 
		-244.291,257.468 -275.736,244.993 -275.736,227.88 	"/>
	<polygon fill="none" stroke="#231F20" stroke-width="0.945" points="-244.396,216.093 -212.848,227.88 -212.848,244.993 
		-244.291,257.468 -275.736,244.993 -275.736,227.88 	"/>
	<polygon fill="#FFFFFF" points="-270.815,243.38 -271.943,231.344 -272.693,231.62 -272.856,230.045 -270.044,229.075 
		-269.634,240.743 -269.061,228.775 -267.55,228.17 -266.731,240.88 -266.139,227.715 -263.469,226.843 -263.47,228.499 
		-263.894,228.635 -265.648,245.427 -267.754,244.537 -268.241,237.381 -268.745,244.192 	"/>
	<path fill="#FFFFFF" d="M-249.562,251.906c0.7,0.292,1.191-0.001,1.191-0.906v-10.572c0-1.016-0.313-1.642-0.546-2.041l-3.276-5.88
		c-0.229-0.176-0.193-2.489-0.193-2.576v-4.241c0-0.238-0.112-0.697,0.327-0.87l0.844-0.275c0.532-0.173,0.542,0.256,0.54,0.676
		v5.763l1.937,0.872v-7.942c0-2.065-0.34-2.144-1.432-1.809c-0.325,0.102-3.274,1.114-3.274,1.114
		c-1.051,0.321-0.876,0.874-0.876,2.399v5.381c0,1.912,0.447,2.337,0.782,2.915l3.052,5.608c0.055,0.089,0.181,0.308,0.181,1.206
		v7.929c0,1.018,0.081,1.238-0.381,1.044l-1.157-0.492c-0.299-0.116-0.265-0.23-0.265-0.879v-5.861l-1.935-1.465v7.99
		c0,0.26-0.175,0.973,0.753,1.434L-249.562,251.906z"/>
	<path fill="#FFFFFF" d="M-232.159,248.841v-1.544l0.785-0.339v-20.396l-0.933-0.334v-1.732l3.507,1.245
		c2.281,0.84,3.016,1.172,3.014,3.306v5.886c-0.002,1.038-0.588,1.606-1.992,1.556v0.038c1.872,0.055,1.767,0.995,1.767,2.886
		l-0.004,4.787c-0.001,1.353,0.223,1.551,0.358,2.045l-2.134,0.846c-0.171-0.325-0.325-0.501-0.324-1.459l0.003-6.596
		c0.001-0.861-0.132-1.435-1.074-1.435l-0.004,8.525l0.465-0.193v1.527L-232.159,248.841z M-228.984,235.587l0.292,0.082
		c0.396,0.108,0.804-0.131,0.804-0.796l0.002-6.626c0.001-0.664-0.407-0.772-0.802-0.904l-0.293-0.106L-228.984,235.587z"/>
	<polygon fill="#FFFFFF" points="-220.217,228.556 -217.941,239.341 -218.544,230.852 -219.302,230.62 -219.302,228.913 
		-216.111,229.993 -216.111,231.709 -216.634,231.54 -216.634,242.793 -218.623,243.646 -221.06,234.42 -221.06,244.541 
		-223.983,245.773 -223.983,244.219 -223.159,243.87 -223.159,229.247 -223.983,228.959 -223.983,227.272 	"/>
	<polygon fill="#FFFFFF" points="-263.286,246.346 -263.286,244.791 -262.584,245.118 -262.568,226.541 -256.081,224.245 
		-256.081,232.088 -257.984,231.264 -257.984,226.587 -260.342,227.42 -260.342,235.95 -258.665,235.95 -258.665,234.545 
		-257.271,234.545 -257.271,239.173 -258.665,239.173 -258.665,237.766 -260.342,237.766 -260.342,245.958 -257.984,246.9 
		-257.984,241.792 -256.081,240.996 -256.081,249.209 	"/>
	<polygon fill="#FFFFFF" points="-237.509,237.768 -235.964,237.768 -235.964,239.172 -234.678,239.172 -234.678,234.545 
		-235.964,234.545 -235.964,235.95 -237.509,235.949 -237.509,224.24 -235.334,224.964 -235.334,232.054 -233.58,231.208 
		-233.58,223.889 -239.564,221.793 -239.578,250.181 -240.225,250.511 -240.225,252.014 -233.58,249.398 -233.58,242.377 
		-235.334,241.497 -235.334,248.521 -237.509,249.438 -237.509,237.767 	"/>
	<polygon fill="#FFFFFF" points="-244.254,253.466 -245.913,252.827 -245.913,251.103 -245.418,251.329 -245.418,222.253 
		-248.281,223.197 -248.297,221.521 -244.396,220.117 -240.164,221.543 -240.164,223.22 -243.197,222.253 -243.197,251.329 
		-242.708,251.111 -242.708,252.839 	"/>
	<polygon fill="#DD0031" points="-240.829,223.434 -242.741,222.818 -242.741,223.226 -240.829,223.829 	"/>
	<polygon fill="#231F20" points="-245.876,222.852 -245.876,250.678 -246.329,250.475 -246.329,222.979 	"/>
	<polygon fill="none" stroke="#DD0031" stroke-width="0.158" points="-245.876,222.852 -245.876,250.678 -246.329,250.475 
		-246.329,222.979 	"/>
	<polygon fill="#231F20" points="-246.47,250.886 -246.47,252.672 -246.96,252.48 -246.96,250.664 	"/>
	<polygon fill="none" stroke="#DD0031" stroke-width="0.158" points="-246.47,250.886 -246.47,252.672 -246.96,252.48 
		-246.96,250.664 	"/>
	<polygon fill="#231F20" points="-273.308,230.154 -273.152,231.638 -273.595,231.794 -273.758,230.285 	"/>
	<polygon fill="none" stroke="#DD0031" stroke-width="0.158" points="-273.308,230.154 -273.152,231.638 -273.595,231.794 
		-273.758,230.285 	"/>
	<polygon fill="#231F20" points="-272.77,232.14 -272.338,231.979 -271.266,243.202 -271.718,243.051 	"/>
	<polygon fill="none" stroke="#DD0031" stroke-width="0.158" points="-272.77,232.14 -272.338,231.979 -271.266,243.202 
		-271.718,243.051 	"/>
	<polygon fill="#231F20" points="-266.59,227.873 -267.04,228.054 -267.074,228.828 -266.785,232.172 	"/>
	<polygon fill="none" stroke="#DD0031" stroke-width="0.158" points="-266.59,227.873 -267.04,228.054 -267.074,228.828 
		-266.785,232.172 	"/>
	<polygon fill="#231F20" points="-263.482,228.953 -263.035,228.8 -263.035,244.456 -263.485,244.271 	"/>
	<polygon fill="none" stroke="#DD0031" stroke-width="0.158" points="-263.482,228.953 -263.035,228.8 -263.035,244.456 
		-263.485,244.271 	"/>
	<polygon fill="#231F20" points="-263.73,244.649 -264.188,244.447 -264.188,245.943 -263.737,246.153 	"/>
	<polygon fill="none" stroke="#DD0031" stroke-width="0.158" points="-263.73,244.649 -264.188,244.447 -264.188,245.943 
		-263.737,246.153 	"/>
	<polygon fill="#231F20" points="-258.886,230.851 -258.886,227.423 -258.436,227.26 -258.436,231.533 -256.99,232.166 
		-256.99,232.565 -258.886,231.809 	"/>
	<polygon fill="none" stroke="#DD0031" stroke-width="0.158" points="-258.886,230.851 -258.886,227.423 -258.436,227.26 
		-258.436,231.533 -256.99,232.166 -256.99,232.565 -258.886,231.809 	"/>
	<rect x="-259.567" y="234.546" fill="#231F20" width="0.456" height="0.993"/>
	<rect x="-259.567" y="234.546" fill="none" stroke="#DD0031" stroke-width="0.158" width="0.456" height="0.993"/>
	<rect x="-259.55" y="238.175" fill="#231F20" width="0.439" height="1.001"/>
	<rect x="-259.55" y="238.176" fill="none" stroke="#DD0031" stroke-width="0.158" width="0.439" height="1.001"/>
	<polygon fill="#231F20" points="-258.873,241.284 -258.873,246.107 -258.435,246.249 -258.435,241.551 -256.982,240.922 
		-256.982,240.528 	"/>
	<polygon fill="none" stroke="#DD0031" stroke-width="0.158" points="-258.873,241.284 -258.873,246.107 -258.435,246.249 
		-258.435,241.551 -256.982,240.922 -256.982,240.528 	"/>
	<path fill="#231F20" d="M-251.668,225.445v6.074l2.142,0.891v-0.452l-1.646-0.738v-6.014c0-0.087,0.034-0.318-0.27-0.256
		c-0.314,0.067-0.389,0.099-0.389,0.099C-251.779,225.049-251.668,225.148-251.668,225.445"/>
	<path fill="none" stroke="#DD0031" stroke-width="0.158" d="M-251.668,225.445v6.074l2.142,0.891v-0.452l-1.646-0.738v-6.014
		c0-0.087,0.034-0.318-0.27-0.256c-0.314,0.067-0.389,0.099-0.389,0.099C-251.779,225.049-251.668,225.148-251.668,225.445z"/>
	<path fill="#231F20" d="M-254.96,240.459l-0.027,8.317c-0.023,0.686,0.064,1.064,0.93,1.444c-0.127-0.107-0.627-0.585-0.477-1.41
		l0.024-8.005L-254.96,240.459z"/>
	<path fill="none" stroke="#DD0031" stroke-width="0.158" d="M-254.96,240.459l-0.027,8.317c-0.023,0.686,0.064,1.064,0.93,1.444
		c-0.127-0.107-0.627-0.585-0.477-1.41l0.024-8.005L-254.96,240.459z"/>
	<path fill="#231F20" d="M-251.217,248.822c0.024-0.109-0.013-7.984-0.013-8.352c0-0.737-0.2-0.868-0.338-1.129
		c-0.138-0.281-2.454-4.608-2.905-5.327c-0.495-0.787-0.796-1.373-0.796-2.341v-6.896c-0.025-1.085,0.927-1.205,0.997-1.224
		c-0.589,0.293-0.509,1.137-0.534,1.234v6.896c0.014,0.933,0.426,1.661,0.775,2.161l2.92,5.375c0.146,0.252,0.344,0.601,0.344,1.021
		v8.775c0,0.097,0.089,0.336-0.249,0.24c-0.397-0.111-0.264-0.11-0.264-0.11S-251.212,249.199-251.217,248.822"/>
	<path fill="none" stroke="#DD0031" stroke-width="0.158" d="M-251.217,248.822c0.024-0.109-0.013-7.984-0.013-8.352
		c0-0.737-0.2-0.868-0.338-1.129c-0.138-0.281-2.454-4.608-2.905-5.327c-0.495-0.787-0.796-1.373-0.796-2.341v-6.896
		c-0.025-1.085,0.927-1.205,0.997-1.224c-0.589,0.293-0.509,1.137-0.534,1.234v6.896c0.014,0.933,0.426,1.661,0.775,2.161
		l2.92,5.375c0.146,0.252,0.344,0.601,0.344,1.021v8.775c0,0.097,0.089,0.336-0.249,0.24c-0.397-0.111-0.264-0.11-0.264-0.11
		S-251.212,249.199-251.217,248.822z"/>
	<polygon fill="#231F20" points="-240.684,252.188 -241.135,252.343 -241.135,250.872 -240.684,250.67 	"/>
	<polygon fill="none" stroke="#DD0031" stroke-width="0.158" points="-240.684,252.188 -241.135,252.343 -241.135,250.872 
		-240.684,250.67 	"/>
	<polygon fill="#231F20" points="-235.818,241.498 -235.821,248.332 -236.272,248.514 -236.272,241.498 	"/>
	<polygon fill="none" stroke="#DD0031" stroke-width="0.158" points="-235.818,241.498 -235.821,248.332 -236.272,248.514 
		-236.272,241.498 	"/>
	<polygon fill="#231F20" points="-236.268,232.109 -236.26,225.07 -235.809,225.221 -235.809,232.109 	"/>
	<polygon fill="none" stroke="#DD0031" stroke-width="0.158" points="-236.268,232.109 -236.26,225.07 -235.809,225.221 
		-235.809,232.109 	"/>
	<rect x="-236.95" y="234.5" fill="#231F20" width="0.45" height="1.057"/>
	<rect x="-236.95" y="234.5" fill="none" stroke="#DD0031" stroke-width="0.158" width="0.45" height="1.057"/>
	<rect x="-236.95" y="238.162" fill="#231F20" width="0.45" height="1.014"/>
	<rect x="-236.95" y="238.162" fill="none" stroke="#DD0031" stroke-width="0.158" width="0.45" height="1.014"/>
	<polygon fill="#231F20" points="-232.262,226.73 -231.823,226.887 -231.823,246.745 -232.272,246.905 	"/>
	<polygon fill="none" stroke="#DD0031" stroke-width="0.158" points="-232.262,226.73 -231.823,226.887 -231.823,246.745 
		-232.272,246.905 	"/>
	<polygon fill="#231F20" points="-224.435,227.068 -224.435,228.788 -224.885,228.664 -224.885,226.912 	"/>
	<polygon fill="none" stroke="#DD0031" stroke-width="0.158" points="-224.435,227.068 -224.435,228.788 -224.885,228.664 
		-224.885,226.912 	"/>
	<polygon fill="#231F20" points="-223.609,243.635 -224.035,243.826 -224.061,229.381 -223.609,229.51 	"/>
	<polygon fill="none" stroke="#DD0031" stroke-width="0.158" points="-223.609,243.635 -224.035,243.826 -224.061,229.381 
		-223.609,229.51 	"/>
	<polygon fill="#231F20" points="-224.435,244.375 -224.435,245.964 -224.885,246.147 -224.885,244.53 	"/>
	<polygon fill="none" stroke="#DD0031" stroke-width="0.158" points="-224.435,244.375 -224.435,245.964 -224.885,246.147 
		-224.885,244.53 	"/>
	<polygon fill="#231F20" points="-220.542,238.09 -220.542,239.793 -219.497,244.01 -219.065,243.816 	"/>
	<polygon fill="none" stroke="#DD0031" stroke-width="0.158" points="-220.542,238.09 -220.542,239.793 -219.497,244.01 
		-219.065,243.816 	"/>
	<polygon fill="#231F20" points="-232.612,247.416 -232.612,249.005 -233.063,249.188 -233.063,247.572 	"/>
	<polygon fill="none" stroke="#DD0031" stroke-width="0.158" points="-232.612,247.416 -232.612,249.005 -233.063,249.188 
		-233.063,247.572 	"/>
	<polygon fill="#231F20" points="-240.442,223.572 -240.004,223.728 -240.004,249.957 -240.451,250.117 	"/>
	<polygon fill="none" stroke="#DD0031" stroke-width="0.158" points="-240.442,223.572 -240.004,223.728 -240.004,249.957 
		-240.451,250.117 	"/>
	<path fill="#231F20" d="M-266.755,253.398l0.285-0.16c0.311-0.176,0.362-0.392,0.271-0.556c-0.146-0.255-0.323-0.262-0.598-0.107
		l-1.865,1.052c-0.275,0.154-0.362,0.311-0.218,0.565c0.128,0.229,0.304,0.23,0.545,0.096l0.442-0.25l0.356,0.632l-0.425,0.238
		c-0.519,0.293-1.115,0.227-1.47-0.407c-0.374-0.662-0.123-1.206,0.397-1.499l1.896-1.067c0.52-0.291,1.115-0.225,1.489,0.438
		c0.356,0.631,0.068,1.196-0.481,1.505l-0.271,0.152L-266.755,253.398z"/>
	<path fill="none" stroke="#BB9753" stroke-width="0.158" d="M-266.755,253.398l0.285-0.16c0.311-0.176,0.362-0.392,0.271-0.556
		c-0.146-0.255-0.323-0.262-0.598-0.107l-1.865,1.052c-0.275,0.154-0.362,0.311-0.218,0.565c0.128,0.229,0.304,0.23,0.545,0.096
		l0.442-0.25l0.356,0.632l-0.425,0.238c-0.519,0.293-1.115,0.227-1.47-0.407c-0.374-0.662-0.123-1.206,0.397-1.499l1.896-1.067
		c0.52-0.291,1.115-0.225,1.489,0.438c0.356,0.631,0.068,1.196-0.481,1.505l-0.271,0.152L-266.755,253.398z"/>
	<path fill="#231F20" d="M-263.715,257.06c0.438-0.407,1.032-0.481,1.55,0.074c0.52,0.558,0.402,1.145-0.033,1.552l-1.592,1.483
		c-0.437,0.407-1.031,0.481-1.55-0.075c-0.518-0.556-0.402-1.144,0.033-1.551L-263.715,257.06z M-264.799,259.062
		c-0.229,0.216-0.277,0.388-0.079,0.602c0.2,0.214,0.375,0.178,0.605-0.037l1.566-1.46c0.23-0.215,0.279-0.388,0.079-0.601
		c-0.199-0.214-0.375-0.179-0.605,0.037L-264.799,259.062z"/>
	<path fill="none" stroke="#BB9753" stroke-width="0.158" d="M-263.715,257.06c0.438-0.407,1.032-0.481,1.55,0.074
		c0.52,0.558,0.402,1.145-0.033,1.552l-1.592,1.483c-0.437,0.407-1.031,0.481-1.55-0.075c-0.518-0.556-0.402-1.144,0.033-1.551
		L-263.715,257.06z M-264.799,259.062c-0.229,0.216-0.277,0.388-0.079,0.602c0.2,0.214,0.375,0.178,0.605-0.037l1.566-1.46
		c0.23-0.215,0.279-0.388,0.079-0.601c-0.199-0.214-0.375-0.179-0.605,0.037L-264.799,259.062z"/>
	<polygon fill="#231F20" points="-260.945,263.906 -258.62,260.382 -258.059,260.752 -258.652,263.254 -258.643,263.262 
		-257.313,261.245 -256.767,261.606 -259.091,265.13 -259.617,264.782 -258.938,262.072 -258.946,262.066 -260.398,264.268 	"/>
	<polygon fill="none" stroke="#BB9753" stroke-width="0.158" points="-260.945,263.906 -258.62,260.382 -258.059,260.752 
		-258.652,263.254 -258.643,263.262 -257.313,261.245 -256.767,261.606 -259.091,265.13 -259.617,264.782 -258.938,262.072 
		-258.946,262.066 -260.398,264.268 	"/>
	<polygon fill="#231F20" points="-254.89,267.229 -253.441,263.264 -251.541,263.956 -251.757,264.551 -252.977,264.104 
		-253.35,265.126 -252.439,265.459 -252.655,266.053 -253.567,265.721 -254.209,267.478 	"/>
	<polygon fill="none" stroke="#BB9753" stroke-width="0.158" points="-254.89,267.229 -253.441,263.264 -251.541,263.956 
		-251.757,264.551 -252.977,264.104 -253.35,265.126 -252.439,265.459 -252.655,266.053 -253.567,265.721 -254.209,267.478 	"/>
	<polygon fill="#231F20" points="-248.556,268.812 -248.038,264.62 -246.111,264.859 -246.189,265.486 -247.396,265.336 
		-247.529,266.417 -246.601,266.53 -246.678,267.158 -247.606,267.043 -247.759,268.273 -246.47,268.434 -246.548,269.06 	"/>
	<polygon fill="none" stroke="#BB9753" stroke-width="0.158" points="-248.556,268.812 -248.038,264.62 -246.111,264.859 
		-246.189,265.486 -247.396,265.336 -247.529,266.417 -246.601,266.53 -246.678,267.158 -247.606,267.043 -247.759,268.273 
		-246.47,268.434 -246.548,269.06 	"/>
	<path fill="#231F20" d="M-241.262,269.021l-0.721,0.077l-0.453-4.197l1.012-0.11c0.809-0.087,1.257,0.212,1.354,1.107
		c0.072,0.675-0.159,0.975-0.392,1.111l0.816,1.837l-0.733,0.078l-0.699-1.683c-0.092,0.022-0.241,0.044-0.37,0.057
		L-241.262,269.021z M-241.512,266.706l0.257-0.026c0.39-0.042,0.519-0.203,0.465-0.703s-0.215-0.63-0.604-0.588l-0.256,0.026
		L-241.512,266.706z"/>
	<path fill="none" stroke="#BB9753" stroke-width="0.158" d="M-241.262,269.021l-0.721,0.077l-0.453-4.197l1.012-0.11
		c0.809-0.087,1.257,0.212,1.354,1.107c0.072,0.675-0.159,0.975-0.392,1.111l0.816,1.837l-0.733,0.078l-0.699-1.683
		c-0.092,0.022-0.241,0.044-0.37,0.057L-241.262,269.021z M-241.512,266.706l0.257-0.026c0.39-0.042,0.519-0.203,0.465-0.703
		s-0.215-0.63-0.604-0.588l-0.256,0.026L-241.512,266.706z"/>
	<polygon fill="#231F20" points="-235.239,267.761 -236.648,263.78 -234.817,263.132 -234.607,263.729 -235.754,264.133 
		-235.391,265.158 -234.51,264.847 -234.298,265.441 -235.181,265.755 -234.767,266.924 -233.543,266.49 -233.332,267.085 	"/>
	<polygon fill="none" stroke="#BB9753" stroke-width="0.158" points="-235.239,267.761 -236.648,263.78 -234.817,263.132 
		-234.607,263.729 -235.754,264.133 -235.391,265.158 -234.51,264.847 -234.298,265.441 -235.181,265.755 -234.767,266.924 
		-233.543,266.49 -233.332,267.085 	"/>
	<polygon fill="#231F20" points="-229.188,264.988 -231.48,261.442 -230.916,261.076 -228.862,262.626 -228.853,262.619 
		-230.165,260.591 -229.615,260.236 -227.322,263.781 -227.854,264.124 -230.061,262.411 -230.07,262.418 -228.639,264.632 	"/>
	<polygon fill="none" stroke="#BB9753" stroke-width="0.158" points="-229.188,264.988 -231.48,261.442 -230.916,261.076 
		-228.862,262.626 -228.853,262.619 -230.165,260.591 -229.615,260.236 -227.322,263.781 -227.854,264.124 -230.061,262.411 
		-230.07,262.418 -228.639,264.632 	"/>
	<path fill="#231F20" d="M-224.69,257.696l-0.237-0.226c-0.259-0.246-0.481-0.231-0.609-0.096c-0.202,0.212-0.157,0.385,0.073,0.602
		l1.551,1.474c0.229,0.219,0.403,0.255,0.604,0.043c0.182-0.189,0.131-0.358-0.067-0.548l-0.37-0.351l0.501-0.526l0.351,0.335
		c0.434,0.411,0.543,1,0.044,1.525c-0.523,0.551-1.116,0.472-1.55,0.06l-1.577-1.498c-0.432-0.411-0.542-1-0.019-1.551
		c0.5-0.526,1.122-0.418,1.58,0.017l0.226,0.216L-224.69,257.696z"/>
	<path fill="none" stroke="#BB9753" stroke-width="0.158" d="M-224.69,257.696l-0.237-0.226c-0.259-0.246-0.481-0.231-0.609-0.096
		c-0.202,0.212-0.157,0.385,0.073,0.602l1.551,1.474c0.229,0.219,0.403,0.255,0.604,0.043c0.182-0.189,0.131-0.358-0.067-0.548
		l-0.37-0.351l0.501-0.526l0.351,0.335c0.434,0.411,0.543,1,0.044,1.525c-0.523,0.551-1.116,0.472-1.55,0.06l-1.577-1.498
		c-0.432-0.411-0.542-1-0.019-1.551c0.5-0.526,1.122-0.418,1.58,0.017l0.226,0.216L-224.69,257.696z"/>
	<polygon fill="#231F20" points="-219.695,255.69 -223.342,253.561 -222.363,251.883 -221.816,252.202 -222.431,253.253 
		-221.491,253.8 -221.02,252.993 -220.474,253.312 -220.945,254.12 -219.874,254.746 -219.219,253.624 -218.674,253.942 	"/>
	<polygon fill="none" stroke="#BB9753" stroke-width="0.158" points="-219.695,255.69 -223.342,253.561 -222.363,251.883 
		-221.816,252.202 -222.431,253.253 -221.491,253.8 -221.02,252.993 -220.474,253.312 -220.945,254.12 -219.874,254.746 
		-219.219,253.624 -218.674,253.942 	"/>
	<path fill="#FFFFFF" d="M-266.92,253.069l0.286-0.16c0.311-0.176,0.362-0.393,0.271-0.556c-0.145-0.255-0.322-0.261-0.598-0.106
		l-1.864,1.051c-0.275,0.154-0.362,0.311-0.22,0.565c0.129,0.229,0.305,0.231,0.547,0.097l0.441-0.25l0.357,0.632l-0.426,0.238
		c-0.519,0.293-1.114,0.226-1.47-0.407c-0.373-0.662-0.122-1.206,0.398-1.499l1.895-1.068c0.521-0.291,1.116-0.224,1.49,0.438
		c0.354,0.632,0.068,1.195-0.482,1.506l-0.27,0.151L-266.92,253.069z"/>
	<path fill="#FFFFFF" d="M-263.879,256.73c0.437-0.407,1.031-0.481,1.551,0.075c0.518,0.557,0.401,1.144-0.034,1.551l-1.593,1.484
		c-0.436,0.406-1.03,0.48-1.55-0.075c-0.519-0.557-0.402-1.145,0.034-1.551L-263.879,256.73z M-264.963,258.732
		c-0.231,0.216-0.279,0.388-0.079,0.602c0.2,0.215,0.375,0.179,0.604-0.036l1.567-1.46c0.231-0.216,0.278-0.389,0.079-0.602
		c-0.2-0.214-0.374-0.178-0.605,0.037L-264.963,258.732z"/>
	<polygon fill="#FFFFFF" points="-261.109,263.577 -258.785,260.054 -258.224,260.425 -258.817,262.927 -258.807,262.933 
		-257.478,260.917 -256.931,261.277 -259.255,264.802 -259.783,264.454 -259.102,261.743 -259.111,261.737 -260.562,263.938 	"/>
	<polygon fill="#FFFFFF" points="-255.055,266.9 -253.606,262.934 -251.705,263.628 -251.922,264.222 -253.142,263.775 
		-253.515,264.798 -252.603,265.131 -252.819,265.724 -253.731,265.392 -254.373,267.148 	"/>
	<polygon fill="#FFFFFF" points="-248.721,268.482 -248.202,264.293 -246.276,264.53 -246.353,265.157 -247.56,265.008 
		-247.693,266.089 -246.765,266.201 -246.842,266.829 -247.771,266.715 -247.924,267.944 -246.635,268.104 -246.712,268.73 	"/>
	<path fill="#FFFFFF" d="M-241.426,268.692l-0.723,0.077l-0.45-4.197l1.011-0.109c0.809-0.087,1.257,0.212,1.354,1.106
		c0.074,0.675-0.158,0.976-0.392,1.112l0.815,1.836l-0.731,0.078l-0.699-1.683c-0.092,0.022-0.243,0.045-0.37,0.058
		L-241.426,268.692z M-241.676,266.378l0.256-0.027c0.39-0.043,0.519-0.203,0.467-0.703c-0.056-0.5-0.216-0.63-0.605-0.588
		l-0.257,0.027L-241.676,266.378z"/>
	<polygon fill="#FFFFFF" points="-235.526,267.473 -236.936,263.492 -235.105,262.845 -234.896,263.44 -236.041,263.846 
		-235.679,264.871 -234.797,264.559 -234.586,265.154 -235.468,265.467 -235.054,266.636 -233.83,266.202 -233.62,266.798 	"/>
	<polygon fill="#FFFFFF" points="-229.518,264.783 -231.81,261.236 -231.245,260.87 -229.191,262.421 -229.183,262.414 
		-230.493,260.385 -229.944,260.03 -227.65,263.576 -228.183,263.919 -230.389,262.206 -230.399,262.213 -228.968,264.427 	"/>
	<path fill="#FFFFFF" d="M-225.06,257.573l-0.237-0.226c-0.26-0.246-0.482-0.231-0.61-0.096c-0.202,0.211-0.156,0.384,0.072,0.602
		l1.553,1.475c0.229,0.217,0.402,0.254,0.604,0.043c0.183-0.191,0.132-0.36-0.066-0.549l-0.37-0.351l0.5-0.525l0.352,0.334
		c0.434,0.41,0.542,1.001,0.043,1.525c-0.522,0.551-1.117,0.471-1.549,0.06l-1.578-1.497c-0.431-0.412-0.542-1.001-0.018-1.553
		c0.499-0.524,1.122-0.417,1.58,0.019l0.225,0.214L-225.06,257.573z"/>
	<polygon fill="#FFFFFF" points="-219.859,255.361 -223.506,253.231 -222.527,251.555 -221.981,251.873 -222.595,252.924 
		-221.655,253.472 -221.184,252.664 -220.639,252.983 -221.11,253.79 -220.039,254.418 -219.384,253.296 -218.838,253.613 	"/>
</g>
</svg>
